<?xml version="1.0" encoding="utf-8"?>
<!-- Generator: Adobe Illustrator 22.0.0, SVG Export Plug-In . SVG Version: 6.00 Build 0)  -->
<svg version="1.1" id="图层_1" xmlns="http://www.w3.org/2000/svg" xmlns:xlink="http://www.w3.org/1999/xlink" x="0px" y="0px"
	 viewBox="0 0 595.3 466.3" style="enable-background:new 0 0 595.3 466.3;" xml:space="preserve">
<style type="text/css">
	.st0{fill:#231815;}
</style>
<path class="st0" d="M311.3,390.9c-78.5,0-143.2-41.9-174.8-66.9c-41-32.5-73.2-73.1-73.2-92.5s32.1-60,73.2-92.5
	c31.6-25,96.3-66.9,174.8-66.9c73,0,135.4,38.9,174.9,71.6c19.6,16.2,38.3,34.9,52.7,52.7c7.6,9.4,20.4,26.6,20.4,35.2
	c0,8.6-12.8,25.7-20.4,35.2c-14.4,17.8-33.1,36.5-52.7,52.7C446.7,352,384.3,390.9,311.3,390.9z M311.3,85
	c-74.6,0-136.5,40.2-166.7,64.1c-45.4,36-68.3,72.2-68.3,82.3s22.8,46.3,68.3,82.3c30.3,24,92.1,64.1,166.7,64.1
	c68.4,0,127.5-36.6,165.1-67.4c45.5-37.2,68.7-72.9,69.8-79.1c-1.1-6.3-24.3-41.9-69.8-79.1C438.9,121.6,379.7,85,311.3,85z
	 M546.3,231.6L546.3,231.6L546.3,231.6z"/>
<path class="st0" d="M313,344.6c-21,0-41.4-5.8-59.2-16.8c-3.1-1.9-4-5.9-2.1-8.9c1.9-3.1,5.9-4,8.9-2.1
	c15.7,9.7,33.8,14.9,52.3,14.9c54.8,0,99.4-44.6,99.4-99.4c0-26.2-10.1-50.9-28.4-69.6c-2.5-2.6-2.5-6.7,0.1-9.2s6.7-2.5,9.2,0.1
	c20.7,21.1,32.1,49.1,32.1,78.6C425.4,294.2,375,344.6,313,344.6z"/>
<path class="st0" d="M235.8,311.2c-1.7,0-3.5-0.7-4.7-2c-19.6-20.9-30.5-48.2-30.5-77c0-62,50.4-112.4,112.4-112.4
	c21.1,0,41.7,5.9,59.6,17.1c3,1.9,4,5.9,2.1,9c-1.9,3-5.9,4-9,2.1c-15.8-9.9-34-15.1-52.7-15.1c-54.8,0-99.4,44.6-99.4,99.4
	c0,25.4,9.6,49.6,26.9,68.1c2.5,2.6,2.3,6.7-0.3,9.2C239,310.6,237.4,311.2,235.8,311.2z"/>
<path class="st0" d="M313,294.4c-11.6,0-22.9-3.2-32.7-9.3c-3.1-1.9-4-5.9-2.1-8.9c1.9-3.1,5.9-4,8.9-2.1c7.8,4.8,16.7,7.4,25.9,7.4
	c27.1,0,49.2-22.1,49.2-49.2c0-9-2.4-17.7-7-25.4c-1.9-3.1-0.9-7.1,2.2-8.9c3.1-1.9,7.1-0.9,8.9,2.2c5.8,9.7,8.9,20.7,8.9,32.1
	C375.2,266.5,347.3,294.4,313,294.4z"/>
<path class="st0" d="M265.4,267.7c-2.2,0-4.3-1.1-5.6-3.1c-5.9-9.7-9.1-20.9-9.1-32.3c0-34.3,27.9-62.2,62.2-62.2
	c11.7,0,23.1,3.3,33,9.4c3,1.9,4,5.9,2.1,9c-1.9,3-5.9,4-9,2.1c-7.8-4.9-16.8-7.5-26.1-7.5c-27.1,0-49.2,22.1-49.2,49.2
	c0,9,2.5,17.9,7.2,25.6c1.9,3.1,0.9,7.1-2.2,8.9C267.7,267.4,266.5,267.7,265.4,267.7z"/>
<path class="st0" d="M201.8,402.3c-1.3,0-2.5-0.4-3.7-1.1c-3-2-3.7-6.1-1.7-9L419.3,65.6c2-3,6.1-3.7,9-1.7c3,2,3.7,6.1,1.7,9
	L207.2,399.4C205.9,401.3,203.9,402.3,201.8,402.3z"/>
</svg>
