<?xml version="1.0" encoding="utf-8"?>
<!-- Generator: Adobe Illustrator 22.0.0, SVG Export Plug-In . SVG Version: 6.00 Build 0)  -->
<svg version="1.1" id="图层_1" xmlns="http://www.w3.org/2000/svg" xmlns:xlink="http://www.w3.org/1999/xlink" x="0px" y="0px"
	 viewBox="0 0 595.3 419.5" style="enable-background:new 0 0 595.3 419.5;" xml:space="preserve">
<style type="text/css">
	.st0{fill:none;stroke:#231815;stroke-width:13;stroke-linecap:round;stroke-linejoin:round;stroke-miterlimit:10;}
</style>
<ellipse class="st0" cx="311.3" cy="203.2" rx="241.5" ry="153"/>
<path class="st0" d="M388.7,129.8c18.7,19.1,30.2,45.3,30.2,74.1c0,58.5-47.4,105.9-105.9,105.9c-20.5,0-39.5-5.8-55.7-15.8"/>
<path class="st0" d="M235.8,276.4c-17.8-18.9-28.7-44.5-28.7-72.5C207.1,145.4,254.5,98,313,98c20.6,0,39.8,5.9,56.1,16.1"/>
<path class="st0" d="M360.7,175.2c5.1,8.4,8,18.2,8,28.7c0,30.8-24.9,55.7-55.7,55.7c-10.8,0-20.8-3-29.3-8.3"/>
<path class="st0" d="M265.4,232.9c-5.1-8.4-8.1-18.3-8.1-28.9c0-30.8,24.9-55.7,55.7-55.7c10.8,0,21,3.1,29.5,8.5"/>
</svg>
