<?xml version="1.0" encoding="utf-8"?>
<!-- Generator: Adobe Illustrator 22.0.0, SVG Export Plug-In . SVG Version: 6.00 Build 0)  -->
<svg version="1.1" id="图层_1" xmlns="http://www.w3.org/2000/svg" xmlns:xlink="http://www.w3.org/1999/xlink" x="0px" y="0px"
	 viewBox="0 0 289.7 99.5" style="enable-background:new 0 0 289.7 99.5;" xml:space="preserve">
<style type="text/css">
	.st0{fill:#3970B3;}
	.st1{fill:#00AEE3;}
</style>
<g>
	<g>
		<path class="st0" d="M43.1,32.9l9-18.2l9,18.2l7.4-5.4l-12.3-25C55.3,1,53.8,0,52.1,0s-3.3,1-4,2.5l-12.3,25L43.1,32.9z"/>
		<path class="st0" d="M36.2,39l-10.4-7.6L3.9,34.6c-1.7,0.2-3.1,1.4-3.6,3.1s-0.1,3.4,1.1,4.6l20,19.5l7.4-5.4L14.2,42.2L36.2,39z"
			/>
	</g>
	<path class="st1" d="M103.9,37.7c-0.5-1.6-1.9-2.8-3.6-3.1l-21.9-3.2L67.9,39l22,3.2L75.4,56.4l7.4,5.4l20-19.5
		C104,41.1,104.4,39.3,103.9,37.7z"/>
	<g>
		<path class="st0" d="M47.6,76.8l-18.9,9.9l3.8-21.9L22,72.4l-3.7,21.8c-0.3,1.7,0.4,3.4,1.8,4.4c1.4,1,3.2,1.1,4.7,0.3l22.8-12
			V76.8z"/>
		<path class="st1" d="M85.9,94.2l-3.7-21.8l-10.4-7.6l3.8,21.9l-18.9-9.9v10.2l22.8,12c0.7,0.3,1.4,0.5,2.1,0.5
			c0.9,0,1.9-0.3,2.6-0.9C85.5,97.6,86.2,95.9,85.9,94.2z"/>
	</g>
</g>
<g>
	<path class="st1" d="M124.5,87.2c0.1,2.2,0.6,3.9,1.5,5.2c1.6,2.5,4.5,3.8,8.7,3.8c1.9,0,3.6-0.3,5.1-0.8c3-1.1,4.4-3,4.4-5.7
		c0-2.1-0.6-3.5-1.9-4.4c-1.3-0.9-3.3-1.6-6-2.2l-5-1.2c-3.3-0.8-5.6-1.6-6.9-2.5c-2.3-1.6-3.5-4-3.5-7.1c0-3.4,1.1-6.2,3.4-8.4
		c2.3-2.2,5.6-3.3,9.8-3.3c3.9,0,7.2,1,9.9,2.9c2.7,1.9,4.1,5,4.1,9.2h-4.8c-0.2-2-0.8-3.6-1.6-4.7c-1.5-2-4.1-3-7.7-3
		c-2.9,0-5,0.6-6.3,1.9s-1.9,2.8-1.9,4.4c0,1.9,0.8,3.2,2.3,4.1c1,0.6,3.2,1.2,6.7,2.1l5.2,1.2c2.5,0.6,4.4,1.4,5.8,2.4
		c2.3,1.8,3.5,4.4,3.5,7.7c0,4.2-1.5,7.2-4.5,9c-3,1.8-6.5,2.7-10.4,2.7c-4.6,0-8.2-1.2-10.8-3.6c-2.6-2.4-3.9-5.6-3.8-9.7H124.5z"
		/>
	<path class="st1" d="M174.1,73.2c2,1.5,3.1,4.1,3.5,7.8h-4.5c-0.3-1.7-0.9-3.1-1.9-4.3c-1-1.1-2.6-1.7-4.7-1.7
		c-3,0-5.1,1.4-6.4,4.3c-0.8,1.9-1.2,4.2-1.2,6.9c0,2.8,0.6,5.1,1.8,7c1.2,1.9,3,2.8,5.5,2.8c1.9,0,3.5-0.6,4.6-1.8
		c1.1-1.2,1.9-2.8,2.3-4.8h4.5c-0.5,3.7-1.8,6.4-3.9,8.1c-2.1,1.7-4.7,2.5-7.9,2.5c-3.6,0-6.5-1.3-8.7-4c-2.2-2.6-3.2-6-3.2-9.9
		c0-4.9,1.2-8.6,3.5-11.4c2.4-2.7,5.4-4.1,9-4.1C169.6,71,172.2,71.7,174.1,73.2z"/>
	<path class="st1" d="M202.4,74.5c2.4,2.4,3.7,5.9,3.7,10.5c0,4.5-1.1,8.1-3.2,11.1c-2.2,2.9-5.5,4.4-10,4.4c-3.8,0-6.8-1.3-9-3.9
		s-3.3-6-3.3-10.4c0-4.7,1.2-8.4,3.5-11.1s5.5-4.1,9.5-4.1C196.9,71,199.9,72.1,202.4,74.5z M199.5,92.9c1.1-2.3,1.7-4.9,1.7-7.8
		c0-2.6-0.4-4.7-1.2-6.3c-1.3-2.5-3.5-3.8-6.7-3.8c-2.8,0-4.9,1.1-6.1,3.3c-1.3,2.2-1.9,4.8-1.9,7.9c0,2.9,0.6,5.4,1.9,7.4
		c1.3,2,3.3,2.9,6.1,2.9C196.3,96.4,198.3,95.3,199.5,92.9z"/>
	<path class="st1" d="M212.7,64h4.7v7.7h4.4v3.8h-4.4v18.1c0,1,0.3,1.6,1,1.9c0.4,0.2,1,0.3,1.8,0.3c0.2,0,0.5,0,0.7,0
		c0.3,0,0.6,0,0.9-0.1v3.7c-0.5,0.2-1.1,0.3-1.7,0.3c-0.6,0.1-1.2,0.1-1.9,0.1c-2.2,0-3.6-0.6-4.4-1.7c-0.8-1.1-1.2-2.6-1.2-4.3
		V75.6h-3.8v-3.8h3.8V64z"/>
	<path class="st1" d="M227.4,64h4.7v7.7h4.4v3.8h-4.4v18.1c0,1,0.3,1.6,1,1.9c0.4,0.2,1,0.3,1.8,0.3c0.2,0,0.5,0,0.7,0
		c0.3,0,0.6,0,0.9-0.1v3.7c-0.5,0.2-1.1,0.3-1.7,0.3c-0.6,0.1-1.2,0.1-1.9,0.1c-2.2,0-3.6-0.6-4.4-1.7c-0.8-1.1-1.2-2.6-1.2-4.3
		V75.6h-3.8v-3.8h3.8V64z"/>
	<path class="st1" d="M240,82.3h13v4.8h-13V82.3z"/>
	<path class="st1" d="M262.6,99.5h-6.2L269.9,80l-12.6-18.5h6.4l9.6,14.5l9.5-14.5h6.1L276.3,80l13.2,19.5h-6.4L273,83.8L262.6,99.5
		z"/>
</g>
<g>
	<g>
		<path class="st0" d="M68.7,347.6l9-18.2l9,18.2l7.4-5.4l-12.3-25c-0.8-1.5-2.3-2.5-4-2.5s-3.3,1-4,2.5l-12.3,25L68.7,347.6z"/>
		<path class="st0" d="M61.9,353.7l-10.4-7.6l-21.9,3.2c-1.7,0.2-3.1,1.4-3.6,3.1s-0.1,3.4,1.1,4.6l20,19.5l7.4-5.4l-14.5-14.2
			L61.9,353.7z"/>
	</g>
	<path class="st1" d="M129.5,352.4c-0.5-1.6-1.9-2.8-3.6-3.1l-21.9-3.2l-10.4,7.6l22,3.2l-14.5,14.2l7.4,5.4l20-19.5
		C129.6,355.8,130.1,354,129.5,352.4z"/>
	<g>
		<path class="st0" d="M73.2,391.5l-18.9,9.9l3.8-21.9l-10.4,7.6l-3.7,21.8c-0.3,1.7,0.4,3.4,1.8,4.4c1.4,1,3.2,1.1,4.7,0.3l22.8-12
			V391.5z"/>
		<path class="st1" d="M111.5,408.9l-3.7-21.8l-10.4-7.6l3.8,21.9l-18.9-9.9v10.2l22.8,12c0.7,0.3,1.4,0.5,2.1,0.5
			c0.9,0,1.9-0.3,2.6-0.9C111.1,412.3,111.8,410.6,111.5,408.9z"/>
	</g>
</g>
<g>
	<path class="st1" d="M150.1,378.3c0.1,2.2,0.6,3.9,1.5,5.2c1.6,2.5,4.5,3.8,8.7,3.8c1.9,0,3.6-0.3,5.1-0.8c3-1.1,4.4-3,4.4-5.7
		c0-2.1-0.6-3.5-1.9-4.4c-1.3-0.9-3.3-1.6-6-2.2l-5-1.2c-3.3-0.8-5.6-1.6-6.9-2.5c-2.3-1.6-3.5-4-3.5-7.1c0-3.4,1.1-6.2,3.4-8.4
		c2.3-2.2,5.6-3.3,9.8-3.3c3.9,0,7.2,1,9.9,2.9c2.7,1.9,4.1,5,4.1,9.2h-4.8c-0.2-2-0.8-3.6-1.6-4.7c-1.5-2-4.1-3-7.7-3
		c-2.9,0-5,0.6-6.3,1.9s-1.9,2.8-1.9,4.4c0,1.9,0.8,3.2,2.3,4.1c1,0.6,3.2,1.2,6.7,2.1l5.2,1.2c2.5,0.6,4.4,1.4,5.8,2.4
		c2.3,1.8,3.5,4.4,3.5,7.7c0,4.2-1.5,7.2-4.5,9c-3,1.8-6.5,2.7-10.4,2.7c-4.6,0-8.2-1.2-10.8-3.6c-2.6-2.4-3.9-5.6-3.8-9.7H150.1z"
		/>
	<path class="st1" d="M199.8,364.3c2,1.5,3.1,4.1,3.5,7.8h-4.5c-0.3-1.7-0.9-3.1-1.9-4.3c-1-1.1-2.6-1.7-4.7-1.7
		c-3,0-5.1,1.4-6.4,4.3c-0.8,1.9-1.2,4.2-1.2,6.9c0,2.8,0.6,5.1,1.8,7c1.2,1.9,3,2.8,5.5,2.8c1.9,0,3.5-0.6,4.6-1.8
		c1.1-1.2,1.9-2.8,2.3-4.8h4.5c-0.5,3.7-1.8,6.4-3.9,8.1c-2.1,1.7-4.7,2.5-7.9,2.5c-3.6,0-6.5-1.3-8.7-4c-2.2-2.6-3.2-6-3.2-9.9
		c0-4.9,1.2-8.6,3.5-11.4c2.4-2.7,5.4-4.1,9-4.1C195.3,362,197.8,362.8,199.8,364.3z"/>
	<path class="st1" d="M228,365.6c2.4,2.4,3.7,5.9,3.7,10.5c0,4.5-1.1,8.1-3.2,11.1c-2.2,2.9-5.5,4.4-10,4.4c-3.8,0-6.8-1.3-9-3.9
		s-3.3-6-3.3-10.4c0-4.7,1.2-8.4,3.5-11.1s5.5-4.1,9.5-4.1C222.6,362,225.6,363.2,228,365.6z M225.1,384c1.1-2.3,1.7-4.9,1.7-7.8
		c0-2.6-0.4-4.7-1.2-6.3c-1.3-2.5-3.5-3.8-6.7-3.8c-2.8,0-4.9,1.1-6.1,3.3c-1.3,2.2-1.9,4.8-1.9,7.9c0,2.9,0.6,5.4,1.9,7.4
		c1.3,2,3.3,2.9,6.1,2.9C221.9,387.5,224,386.4,225.1,384z"/>
	<path class="st1" d="M238.4,355.1h4.7v7.7h4.4v3.8h-4.4v18.1c0,1,0.3,1.6,1,1.9c0.4,0.2,1,0.3,1.8,0.3c0.2,0,0.5,0,0.7,0
		c0.3,0,0.6,0,0.9-0.1v3.7c-0.5,0.2-1.1,0.3-1.7,0.3c-0.6,0.1-1.2,0.1-1.9,0.1c-2.2,0-3.6-0.6-4.4-1.7c-0.8-1.1-1.2-2.6-1.2-4.3
		v-18.3h-3.8v-3.8h3.8V355.1z"/>
	<path class="st1" d="M253.1,355.1h4.7v7.7h4.4v3.8h-4.4v18.1c0,1,0.3,1.6,1,1.9c0.4,0.2,1,0.3,1.8,0.3c0.2,0,0.5,0,0.7,0
		c0.3,0,0.6,0,0.9-0.1v3.7c-0.5,0.2-1.1,0.3-1.7,0.3c-0.6,0.1-1.2,0.1-1.9,0.1c-2.2,0-3.6-0.6-4.4-1.7c-0.8-1.1-1.2-2.6-1.2-4.3
		v-18.3h-3.8v-3.8h3.8V355.1z"/>
	<path class="st1" d="M265.6,373.4h13v4.8h-13V373.4z"/>
	<path class="st1" d="M288.3,390.5h-6.2l13.4-19.5L283,352.6h6.4l9.6,14.5l9.5-14.5h6.1L302,371.1l13.2,19.5h-6.4l-10.1-15.6
		L288.3,390.5z"/>
</g>
</svg>
